<?xml version="1.0" encoding="UTF-8" standalone="no"?>
<!DOCTYPE svg PUBLIC "-//W3C//DTD SVG 1.1//EN" "http://www.w3.org/Graphics/SVG/1.1/DTD/svg11.dtd">
<svg version="1.1" xmlns="http://www.w3.org/2000/svg" xmlns:xlink="http://www.w3.org/1999/xlink" preserveAspectRatio="xMidYMid meet" viewBox="116.69257944723773 130.1491295388555 318.99999999999994 319" width="315" height="315"><defs><path d="M117.69 131.15L432.69 131.15L432.69 446.15L117.69 446.15L117.69 131.15Z" id="dp92sRk11"></path><path d="M198.68 347.47L220.4 324.95L273.47 371.06L277.29 368.5L231.37 327.02L231.37 298.87L277.29 279.61L277.29 134.44L198.68 172.2L198.68 347.47Z" id="a4RsK4cIBX"></path><path d="M277.29 234.08L306.1 223.97L340.76 239.13L340.76 162.24L277.29 134.44L277.29 234.08Z" id="a1oJNeA0Mr"></path><path d="M353.76 245.1L353.76 335.52L335.35 321.44L278.31 361.88L278.31 284.62L306.47 296.87L306.47 223.97L353.76 245.1Z" id="d2gFePKNep"></path><path d="M198.68 224.84L155.56 243.61L155.56 356.97L175.06 371.06L198.68 347.47L198.68 224.84Z" id="c1fbzpIaL"></path><path d="M270.01 441.63L171.09 441.63L171.09 387.48L221.99 340.18L270.01 387.48L270.01 441.63ZM199.41 427.76L220.55 427.76L220.55 408.7L199.41 408.7L199.41 427.76ZM223.41 427.76L244.55 427.76L244.55 408.7L223.41 408.7L223.41 427.76ZM199.41 405.43L220.55 405.43L220.55 386.36L199.41 386.36L199.41 405.43ZM223.41 405.3L244.55 405.3L244.55 386.23L223.41 386.23L223.41 405.3Z" id="a1yPZevaxq"></path><path d="M378.98 441.63L290.89 441.63L290.89 365.45L335.3 340.18L378.98 365.45L378.98 441.63ZM326.06 390.91L333.45 390.91L333.45 381.56L326.06 381.56L326.06 390.91ZM335.13 390.91L342.53 390.91L342.53 381.56L335.13 381.56L335.13 390.91ZM326.06 380.41L333.45 380.41L333.45 371.06L326.06 371.06L326.06 380.41ZM334.93 380.41L342.33 380.41L342.33 371.06L334.93 371.06L334.93 380.41Z" id="a2psCH5zrJ"></path></defs><g><g></g><g><use xlink:href="#a4RsK4cIBX" opacity="1" fill="#107972" fill-opacity="1"></use></g><g><use xlink:href="#a1oJNeA0Mr" opacity="1" fill="#ffaa01" fill-opacity="1"></use></g><g><use xlink:href="#d2gFePKNep" opacity="1" fill="#107972" fill-opacity="1"></use></g><g><use xlink:href="#c1fbzpIaL" opacity="1" fill="#ffaa01" fill-opacity="1"></use></g><g><use xlink:href="#a1yPZevaxq" opacity="1" fill="#107972" fill-opacity="1"></use></g><g><use xlink:href="#a2psCH5zrJ" opacity="1" fill="#107972" fill-opacity="1"></use></g></g></svg>